<svg width="16" height="18" viewBox="0 0 16 18" fill="none" xmlns="http://www.w3.org/2000/svg">
<path d="M7.84729 7.93548L5.61863 8.68003L4.53536 5.4375L6.72868 4.70476C7.17539 4.55552 7.6486 4.58651 8.0646 4.7895L8.06482 4.78961C8.48063 4.99225 8.78581 5.34036 8.92994 5.77179C9.07404 6.20313 9.03933 6.66438 8.82878 7.07635L8.82855 7.0768C8.62372 7.47858 8.27793 7.78185 7.84729 7.93548ZM2.7273 6.04069L3.05329 5.93178L5.8872 14.4145L5.56121 14.5234C5.16007 14.6575 4.92758 15.0928 5.0661 15.5074C5.20461 15.922 5.65207 16.1301 6.0532 15.9961L7.97379 15.3545L8.07779 15.6658C8.21631 16.0804 8.66376 16.2886 9.0649 16.1546C9.46604 16.0206 9.69853 15.5852 9.56001 15.1706L9.45601 14.8593L9.58557 14.816L9.68957 15.1273C9.82809 15.542 10.2755 15.7501 10.6767 15.6161C11.0787 15.4818 11.3096 15.046 11.1714 14.6323L11.0652 14.3145C12.8053 13.6131 13.7398 11.6879 13.1416 9.89721C12.7098 8.60488 11.5972 7.73667 10.331 7.53585C10.6185 6.84033 10.6683 6.04469 10.4118 5.27674C9.95593 3.91224 8.67691 3.0604 7.30485 3.05847L7.14538 2.58116L7.14536 2.58107C7.00706 2.16736 6.56032 1.95852 6.15876 2.09268C5.75809 2.22653 5.52498 2.66153 5.66351 3.07622L5.7679 3.38868L5.63832 3.43197L5.53396 3.11959C5.53395 3.11956 5.53394 3.11954 5.53393 3.11951C5.39541 2.70477 4.9476 2.4973 4.54698 2.63114C4.14631 2.76499 3.9132 3.2 4.05174 3.61468L4.15612 3.92714L3.873 4.02173L3.87274 4.02097L3.39851 4.1794L2.23528 4.56801C1.83411 4.70203 1.6017 5.1374 1.74019 5.55193C1.87869 5.9665 2.32613 6.17471 2.7273 6.04069ZM11.5424 11.9089L11.5423 11.9091C11.2982 12.3878 10.8809 12.7462 10.3626 12.9194L7.36902 13.9195L6.11075 10.1531L8.30407 9.42037C8.32134 9.4146 8.33778 9.40863 8.34911 9.40447L9.10404 9.15227C9.62205 8.97921 10.1713 9.01534 10.6545 9.2511L10.6547 9.2512C11.1375 9.48655 11.4923 9.89104 11.6597 10.3923C11.8273 10.8938 11.7868 11.43 11.5424 11.9089Z" fill="url(#paint0_linear)" stroke="url(#paint1_linear)"/>
<defs>
<linearGradient id="paint0_linear" x1="5.51683" y1="0.633986" x2="14.061" y2="22.5052" gradientUnits="userSpaceOnUse">
<stop stop-color="#FD749B"/>
<stop offset="1" stop-color="#281AC8"/>
</linearGradient>
<linearGradient id="paint1_linear" x1="5.51683" y1="0.633986" x2="14.061" y2="22.5052" gradientUnits="userSpaceOnUse">
<stop stop-color="#FD749B"/>
<stop offset="1" stop-color="#281AC8"/>
</linearGradient>
</defs>
</svg>
