<svg width="98" height="17" viewBox="0 0 98 17" fill="none" xmlns="http://www.w3.org/2000/svg">
<mask id="path-1-outside-1" maskUnits="userSpaceOnUse" x="-0.433609" y="-0.410889" width="98" height="18" fill="black">
<rect fill="white" x="-0.433609" y="-0.410889" width="98" height="18"/>
<path d="M0.566391 9.09426C0.566391 7.6905 0.884832 6.43124 1.52171 5.31649C2.15859 4.18797 3.02392 3.30718 4.1177 2.67411C5.22532 2.04104 6.45062 1.72451 7.79361 1.72451C9.37197 1.72451 10.7496 2.10297 11.9264 2.8599C13.1033 3.61684 13.9617 4.6903 14.5016 6.0803H12.2379C11.8364 5.21327 11.2549 4.5458 10.4934 4.07787C9.74579 3.60995 8.84585 3.37599 7.79361 3.37599C6.78291 3.37599 5.87604 3.60995 5.07302 4.07787C4.26999 4.5458 3.64004 5.21327 3.18314 6.0803C2.72625 6.93357 2.4978 7.93822 2.4978 9.09426C2.4978 10.2365 2.72625 11.2412 3.18314 12.1082C3.64004 12.9615 4.26999 13.6221 5.07302 14.09C5.87604 14.5579 6.78291 14.7919 7.79361 14.7919C8.84585 14.7919 9.74579 14.5648 10.4934 14.1107C11.2549 13.6427 11.8364 12.9753 12.2379 12.1082H14.5016C13.9617 13.4845 13.1033 14.551 11.9264 15.308C10.7496 16.0511 9.37197 16.4227 7.79361 16.4227C6.45062 16.4227 5.22532 16.1131 4.1177 15.4938C3.02392 14.8607 2.15859 13.9868 1.52171 12.872C0.884832 11.7573 0.566391 10.498 0.566391 9.09426Z"/>
<path d="M22.2784 16.4847C21.2123 16.4847 20.2431 16.2438 19.3709 15.7621C18.5125 15.2805 17.8341 14.5992 17.3356 13.7184C16.851 12.8239 16.6088 11.7917 16.6088 10.6219C16.6088 9.46585 16.858 8.44743 17.3564 7.56664C17.8687 6.67208 18.5609 5.99085 19.4332 5.52292C20.3054 5.04124 21.2815 4.8004 22.3615 4.8004C23.4414 4.8004 24.4175 5.04124 25.2897 5.52292C26.162 5.99085 26.8473 6.6652 27.3457 7.54599C27.858 8.42679 28.1142 9.45208 28.1142 10.6219C28.1142 11.7917 27.8511 12.8239 27.325 13.7184C26.8127 14.5992 26.1135 15.2805 25.2274 15.7621C24.3413 16.2438 23.3583 16.4847 22.2784 16.4847ZM22.2784 14.8332C22.9568 14.8332 23.5937 14.6749 24.189 14.3584C24.7844 14.0418 25.262 13.567 25.622 12.934C25.9958 12.3009 26.1827 11.5302 26.1827 10.6219C26.1827 9.71357 26.0028 8.94288 25.6428 8.30981C25.2828 7.67674 24.8121 7.20882 24.2306 6.90604C23.6491 6.58951 23.0191 6.43124 22.3407 6.43124C21.6484 6.43124 21.0115 6.58951 20.43 6.90604C19.8624 7.20882 19.4055 7.67674 19.0594 8.30981C18.7132 8.94288 18.5402 9.71357 18.5402 10.6219C18.5402 11.544 18.7063 12.3215 19.0386 12.9546C19.3847 13.5877 19.8416 14.0625 20.4093 14.379C20.9769 14.6818 21.6 14.8332 22.2784 14.8332Z"/>
<path d="M31.5751 3.14891C31.2151 3.14891 30.9105 3.02505 30.6613 2.77733C30.4121 2.52961 30.2875 2.22683 30.2875 1.86901C30.2875 1.51119 30.4121 1.20842 30.6613 0.960696C30.9105 0.712973 31.2151 0.589111 31.5751 0.589111C31.9212 0.589111 32.212 0.712973 32.4473 0.960696C32.6966 1.20842 32.8212 1.51119 32.8212 1.86901C32.8212 2.22683 32.6966 2.52961 32.4473 2.77733C32.212 3.02505 31.9212 3.14891 31.5751 3.14891ZM32.4889 4.98619V16.2989H30.599V4.98619H32.4889Z"/>
<path d="M41.2549 4.77976C42.6394 4.77976 43.7608 5.19951 44.6193 6.03901C45.4777 6.86476 45.9069 8.06208 45.9069 9.63099V16.2989H44.0378V9.89936C44.0378 8.77085 43.7539 7.9107 43.1863 7.31891C42.6186 6.71337 41.8433 6.4106 40.8603 6.4106C39.8634 6.4106 39.0673 6.72025 38.472 7.33956C37.8905 7.95887 37.5997 8.8603 37.5997 10.0439V16.2989H35.7098V4.98619H37.5997V6.59639C37.9735 6.01837 38.4789 5.57109 39.1158 5.25456C39.7665 4.93802 40.4795 4.77976 41.2549 4.77976Z"/>
<path d="M56.242 8.88783C56.7681 8.9704 57.2457 9.18372 57.6749 9.52778C58.118 9.87184 58.4641 10.2985 58.7133 10.8077C58.9764 11.3169 59.1079 11.8605 59.1079 12.4385C59.1079 13.1679 58.921 13.8285 58.5472 14.4203C58.1734 14.9983 57.6265 15.4594 56.9065 15.8034C56.2004 16.1337 55.3628 16.2989 54.3936 16.2989H48.994V1.9103H54.1859C55.169 1.9103 56.0066 2.07545 56.6988 2.40575C57.3911 2.72228 57.9103 3.1558 58.2564 3.70629C58.6026 4.25679 58.7756 4.87609 58.7756 5.56421C58.7756 6.41748 58.5403 7.12624 58.0695 7.6905C57.6126 8.24099 57.0034 8.6401 56.242 8.88783ZM50.8838 8.12401H54.0613C54.9474 8.12401 55.6328 7.91758 56.1174 7.50471C56.6019 7.09184 56.8442 6.5207 56.8442 5.79129C56.8442 5.06188 56.6019 4.49075 56.1174 4.07787C55.6328 3.665 54.9336 3.45857 54.0198 3.45857H50.8838V8.12401ZM54.2275 14.7506C55.1689 14.7506 55.9027 14.5304 56.4289 14.09C56.955 13.6496 57.218 13.0372 57.218 12.2527C57.218 11.4545 56.9411 10.8283 56.3873 10.3742C55.8335 9.90624 55.0928 9.67228 54.1652 9.67228H50.8838V14.7506H54.2275Z"/>
<path d="M61.0244 10.6012C61.0244 9.4452 61.2598 8.43367 61.7305 7.56664C62.2013 6.68585 62.8451 6.00461 63.6619 5.52292C64.4926 5.04124 65.4134 4.8004 66.424 4.8004C67.4209 4.8004 68.2862 5.01372 69.02 5.44035C69.7538 5.86698 70.3007 6.40372 70.6607 7.05055V4.98619H72.5713V16.2989H70.6607V14.1932C70.2869 14.8538 69.7261 15.4043 68.9785 15.8447C68.2447 16.2713 67.3863 16.4847 66.4033 16.4847C65.3926 16.4847 64.4788 16.2369 63.6619 15.7415C62.8451 15.246 62.2013 14.551 61.7305 13.6565C61.2598 12.7619 61.0244 11.7435 61.0244 10.6012ZM70.6607 10.6219C70.6607 9.76862 70.4876 9.02545 70.1415 8.39238C69.7954 7.75931 69.3246 7.27763 68.7293 6.94733C68.1478 6.60327 67.504 6.43124 66.7979 6.43124C66.0918 6.43124 65.448 6.59639 64.8665 6.92669C64.285 7.25698 63.8211 7.73867 63.475 8.37174C63.1289 9.00481 62.9558 9.74798 62.9558 10.6012C62.9558 11.4683 63.1289 12.2252 63.475 12.872C63.8211 13.5051 64.285 13.9937 64.8665 14.3377C65.448 14.668 66.0918 14.8332 66.7979 14.8332C67.504 14.8332 68.1478 14.668 68.7293 14.3377C69.3246 13.9937 69.7954 13.5051 70.1415 12.872C70.4876 12.2252 70.6607 11.4752 70.6607 10.6219Z"/>
<path d="M79.794 16.4847C78.9218 16.4847 78.1395 16.3402 77.4473 16.0511C76.755 15.7484 76.2081 15.3355 75.8066 14.8125C75.4051 14.2758 75.1836 13.6634 75.142 12.9753H77.0942C77.1496 13.5395 77.4126 14.0006 77.8834 14.3584C78.368 14.7162 78.9979 14.8951 79.7732 14.8951C80.4932 14.8951 81.0609 14.7368 81.4762 14.4203C81.8916 14.1038 82.0993 13.7047 82.0993 13.223C82.0993 12.7275 81.8777 12.3628 81.4347 12.1289C80.9916 11.8811 80.3063 11.6403 79.3787 11.4063C78.5341 11.1861 77.8418 10.9659 77.3019 10.7457C76.7758 10.5118 76.3189 10.1746 75.9312 9.73421C75.5574 9.28005 75.3705 8.68827 75.3705 7.95887C75.3705 7.38085 75.5435 6.85099 75.8897 6.36931C76.2358 5.88763 76.7273 5.50916 77.3642 5.23391C78.0011 4.9449 78.7279 4.8004 79.5448 4.8004C80.8047 4.8004 81.8223 5.11693 82.5977 5.75C83.373 6.38307 83.7884 7.2501 83.8437 8.35109H81.9539C81.9123 7.75931 81.67 7.28451 81.227 6.92669C80.7978 6.56887 80.2163 6.38995 79.4825 6.38995C78.8041 6.38995 78.2641 6.53446 77.8626 6.82347C77.4611 7.11248 77.2603 7.49094 77.2603 7.95887C77.2603 8.33045 77.378 8.6401 77.6134 8.88783C77.8626 9.12179 78.1672 9.31446 78.5272 9.46585C78.901 9.60347 79.4133 9.76174 80.064 9.94065C80.8809 10.1608 81.5454 10.381 82.0577 10.6012C82.57 10.8077 83.0061 11.1242 83.3661 11.5508C83.7399 11.9775 83.9337 12.5349 83.9476 13.223C83.9476 13.8423 83.7745 14.3997 83.4284 14.8951C83.0823 15.3905 82.5908 15.7828 81.9539 16.0718C81.3308 16.347 80.6109 16.4847 79.794 16.4847Z"/>
<path d="M96.9994 10.209C96.9994 10.5668 96.9786 10.9453 96.9371 11.3444H87.8408C87.91 12.4592 88.2907 13.3331 88.983 13.9661C89.6891 14.5855 90.5406 14.8951 91.5374 14.8951C92.3543 14.8951 93.0327 14.7093 93.5727 14.3377C94.1265 13.9524 94.5142 13.4432 94.7357 12.8101H96.7709C96.4663 13.8973 95.8571 14.785 94.9434 15.4731C94.0296 16.1475 92.8943 16.4847 91.5374 16.4847C90.4575 16.4847 89.4883 16.2438 88.6299 15.7621C87.7854 15.2805 87.1208 14.5992 86.6362 13.7184C86.1516 12.8239 85.9093 11.7917 85.9093 10.6219C85.9093 9.45208 86.1447 8.42679 86.6154 7.54599C87.0862 6.6652 87.7438 5.99085 88.5884 5.52292C89.4468 5.04124 90.4298 4.8004 91.5374 4.8004C92.6174 4.8004 93.5727 5.03436 94.4034 5.50228C95.2341 5.9702 95.871 6.61703 96.314 7.44278C96.7709 8.25476 96.9994 9.17684 96.9994 10.209ZM95.0472 9.81679C95.0472 9.10114 94.888 8.48872 94.5695 7.97951C94.2511 7.45654 93.815 7.06431 93.2612 6.80283C92.7212 6.52758 92.1189 6.38995 91.4544 6.38995C90.499 6.38995 89.6822 6.69273 89.0038 7.29827C88.3392 7.90382 87.9584 8.74332 87.8615 9.81679H95.0472Z"/>
</mask>
<path d="M0.566391 9.09426C0.566391 7.6905 0.884832 6.43124 1.52171 5.31649C2.15859 4.18797 3.02392 3.30718 4.1177 2.67411C5.22532 2.04104 6.45062 1.72451 7.79361 1.72451C9.37197 1.72451 10.7496 2.10297 11.9264 2.8599C13.1033 3.61684 13.9617 4.6903 14.5016 6.0803H12.2379C11.8364 5.21327 11.2549 4.5458 10.4934 4.07787C9.74579 3.60995 8.84585 3.37599 7.79361 3.37599C6.78291 3.37599 5.87604 3.60995 5.07302 4.07787C4.26999 4.5458 3.64004 5.21327 3.18314 6.0803C2.72625 6.93357 2.4978 7.93822 2.4978 9.09426C2.4978 10.2365 2.72625 11.2412 3.18314 12.1082C3.64004 12.9615 4.26999 13.6221 5.07302 14.09C5.87604 14.5579 6.78291 14.7919 7.79361 14.7919C8.84585 14.7919 9.74579 14.5648 10.4934 14.1107C11.2549 13.6427 11.8364 12.9753 12.2379 12.1082H14.5016C13.9617 13.4845 13.1033 14.551 11.9264 15.308C10.7496 16.0511 9.37197 16.4227 7.79361 16.4227C6.45062 16.4227 5.22532 16.1131 4.1177 15.4938C3.02392 14.8607 2.15859 13.9868 1.52171 12.872C0.884832 11.7573 0.566391 10.498 0.566391 9.09426Z" fill="#5C5C5C"/>
<path d="M22.2784 16.4847C21.2123 16.4847 20.2431 16.2438 19.3709 15.7621C18.5125 15.2805 17.8341 14.5992 17.3356 13.7184C16.851 12.8239 16.6088 11.7917 16.6088 10.6219C16.6088 9.46585 16.858 8.44743 17.3564 7.56664C17.8687 6.67208 18.5609 5.99085 19.4332 5.52292C20.3054 5.04124 21.2815 4.8004 22.3615 4.8004C23.4414 4.8004 24.4175 5.04124 25.2897 5.52292C26.162 5.99085 26.8473 6.6652 27.3457 7.54599C27.858 8.42679 28.1142 9.45208 28.1142 10.6219C28.1142 11.7917 27.8511 12.8239 27.325 13.7184C26.8127 14.5992 26.1135 15.2805 25.2274 15.7621C24.3413 16.2438 23.3583 16.4847 22.2784 16.4847ZM22.2784 14.8332C22.9568 14.8332 23.5937 14.6749 24.189 14.3584C24.7844 14.0418 25.262 13.567 25.622 12.934C25.9958 12.3009 26.1827 11.5302 26.1827 10.6219C26.1827 9.71357 26.0028 8.94288 25.6428 8.30981C25.2828 7.67674 24.8121 7.20882 24.2306 6.90604C23.6491 6.58951 23.0191 6.43124 22.3407 6.43124C21.6484 6.43124 21.0115 6.58951 20.43 6.90604C19.8624 7.20882 19.4055 7.67674 19.0594 8.30981C18.7132 8.94288 18.5402 9.71357 18.5402 10.6219C18.5402 11.544 18.7063 12.3215 19.0386 12.9546C19.3847 13.5877 19.8416 14.0625 20.4093 14.379C20.9769 14.6818 21.6 14.8332 22.2784 14.8332Z" fill="#5C5C5C"/>
<path d="M31.5751 3.14891C31.2151 3.14891 30.9105 3.02505 30.6613 2.77733C30.4121 2.52961 30.2875 2.22683 30.2875 1.86901C30.2875 1.51119 30.4121 1.20842 30.6613 0.960696C30.9105 0.712973 31.2151 0.589111 31.5751 0.589111C31.9212 0.589111 32.212 0.712973 32.4473 0.960696C32.6966 1.20842 32.8212 1.51119 32.8212 1.86901C32.8212 2.22683 32.6966 2.52961 32.4473 2.77733C32.212 3.02505 31.9212 3.14891 31.5751 3.14891ZM32.4889 4.98619V16.2989H30.599V4.98619H32.4889Z" fill="#5C5C5C"/>
<path d="M41.2549 4.77976C42.6394 4.77976 43.7608 5.19951 44.6193 6.03901C45.4777 6.86476 45.9069 8.06208 45.9069 9.63099V16.2989H44.0378V9.89936C44.0378 8.77085 43.7539 7.9107 43.1863 7.31891C42.6186 6.71337 41.8433 6.4106 40.8603 6.4106C39.8634 6.4106 39.0673 6.72025 38.472 7.33956C37.8905 7.95887 37.5997 8.8603 37.5997 10.0439V16.2989H35.7098V4.98619H37.5997V6.59639C37.9735 6.01837 38.4789 5.57109 39.1158 5.25456C39.7665 4.93802 40.4795 4.77976 41.2549 4.77976Z" fill="#5C5C5C"/>
<path d="M56.242 8.88783C56.7681 8.9704 57.2457 9.18372 57.6749 9.52778C58.118 9.87184 58.4641 10.2985 58.7133 10.8077C58.9764 11.3169 59.1079 11.8605 59.1079 12.4385C59.1079 13.1679 58.921 13.8285 58.5472 14.4203C58.1734 14.9983 57.6265 15.4594 56.9065 15.8034C56.2004 16.1337 55.3628 16.2989 54.3936 16.2989H48.994V1.9103H54.1859C55.169 1.9103 56.0066 2.07545 56.6988 2.40575C57.3911 2.72228 57.9103 3.1558 58.2564 3.70629C58.6026 4.25679 58.7756 4.87609 58.7756 5.56421C58.7756 6.41748 58.5403 7.12624 58.0695 7.6905C57.6126 8.24099 57.0034 8.6401 56.242 8.88783ZM50.8838 8.12401H54.0613C54.9474 8.12401 55.6328 7.91758 56.1174 7.50471C56.6019 7.09184 56.8442 6.5207 56.8442 5.79129C56.8442 5.06188 56.6019 4.49075 56.1174 4.07787C55.6328 3.665 54.9336 3.45857 54.0198 3.45857H50.8838V8.12401ZM54.2275 14.7506C55.1689 14.7506 55.9027 14.5304 56.4289 14.09C56.955 13.6496 57.218 13.0372 57.218 12.2527C57.218 11.4545 56.9411 10.8283 56.3873 10.3742C55.8335 9.90624 55.0928 9.67228 54.1652 9.67228H50.8838V14.7506H54.2275Z" fill="#5C5C5C"/>
<path d="M61.0244 10.6012C61.0244 9.4452 61.2598 8.43367 61.7305 7.56664C62.2013 6.68585 62.8451 6.00461 63.6619 5.52292C64.4926 5.04124 65.4134 4.8004 66.424 4.8004C67.4209 4.8004 68.2862 5.01372 69.02 5.44035C69.7538 5.86698 70.3007 6.40372 70.6607 7.05055V4.98619H72.5713V16.2989H70.6607V14.1932C70.2869 14.8538 69.7261 15.4043 68.9785 15.8447C68.2447 16.2713 67.3863 16.4847 66.4033 16.4847C65.3926 16.4847 64.4788 16.2369 63.6619 15.7415C62.8451 15.246 62.2013 14.551 61.7305 13.6565C61.2598 12.7619 61.0244 11.7435 61.0244 10.6012ZM70.6607 10.6219C70.6607 9.76862 70.4876 9.02545 70.1415 8.39238C69.7954 7.75931 69.3246 7.27763 68.7293 6.94733C68.1478 6.60327 67.504 6.43124 66.7979 6.43124C66.0918 6.43124 65.448 6.59639 64.8665 6.92669C64.285 7.25698 63.8211 7.73867 63.475 8.37174C63.1289 9.00481 62.9558 9.74798 62.9558 10.6012C62.9558 11.4683 63.1289 12.2252 63.475 12.872C63.8211 13.5051 64.285 13.9937 64.8665 14.3377C65.448 14.668 66.0918 14.8332 66.7979 14.8332C67.504 14.8332 68.1478 14.668 68.7293 14.3377C69.3246 13.9937 69.7954 13.5051 70.1415 12.872C70.4876 12.2252 70.6607 11.4752 70.6607 10.6219Z" fill="#5C5C5C"/>
<path d="M79.794 16.4847C78.9218 16.4847 78.1395 16.3402 77.4473 16.0511C76.755 15.7484 76.2081 15.3355 75.8066 14.8125C75.4051 14.2758 75.1836 13.6634 75.142 12.9753H77.0942C77.1496 13.5395 77.4126 14.0006 77.8834 14.3584C78.368 14.7162 78.9979 14.8951 79.7732 14.8951C80.4932 14.8951 81.0609 14.7368 81.4762 14.4203C81.8916 14.1038 82.0993 13.7047 82.0993 13.223C82.0993 12.7275 81.8777 12.3628 81.4347 12.1289C80.9916 11.8811 80.3063 11.6403 79.3787 11.4063C78.5341 11.1861 77.8418 10.9659 77.3019 10.7457C76.7758 10.5118 76.3189 10.1746 75.9312 9.73421C75.5574 9.28005 75.3705 8.68827 75.3705 7.95887C75.3705 7.38085 75.5435 6.85099 75.8897 6.36931C76.2358 5.88763 76.7273 5.50916 77.3642 5.23391C78.0011 4.9449 78.7279 4.8004 79.5448 4.8004C80.8047 4.8004 81.8223 5.11693 82.5977 5.75C83.373 6.38307 83.7884 7.2501 83.8437 8.35109H81.9539C81.9123 7.75931 81.67 7.28451 81.227 6.92669C80.7978 6.56887 80.2163 6.38995 79.4825 6.38995C78.8041 6.38995 78.2641 6.53446 77.8626 6.82347C77.4611 7.11248 77.2603 7.49094 77.2603 7.95887C77.2603 8.33045 77.378 8.6401 77.6134 8.88783C77.8626 9.12179 78.1672 9.31446 78.5272 9.46585C78.901 9.60347 79.4133 9.76174 80.064 9.94065C80.8809 10.1608 81.5454 10.381 82.0577 10.6012C82.57 10.8077 83.0061 11.1242 83.3661 11.5508C83.7399 11.9775 83.9337 12.5349 83.9476 13.223C83.9476 13.8423 83.7745 14.3997 83.4284 14.8951C83.0823 15.3905 82.5908 15.7828 81.9539 16.0718C81.3308 16.347 80.6109 16.4847 79.794 16.4847Z" fill="#5C5C5C"/>
<path d="M96.9994 10.209C96.9994 10.5668 96.9786 10.9453 96.9371 11.3444H87.8408C87.91 12.4592 88.2907 13.3331 88.983 13.9661C89.6891 14.5855 90.5406 14.8951 91.5374 14.8951C92.3543 14.8951 93.0327 14.7093 93.5727 14.3377C94.1265 13.9524 94.5142 13.4432 94.7357 12.8101H96.7709C96.4663 13.8973 95.8571 14.785 94.9434 15.4731C94.0296 16.1475 92.8943 16.4847 91.5374 16.4847C90.4575 16.4847 89.4883 16.2438 88.6299 15.7621C87.7854 15.2805 87.1208 14.5992 86.6362 13.7184C86.1516 12.8239 85.9093 11.7917 85.9093 10.6219C85.9093 9.45208 86.1447 8.42679 86.6154 7.54599C87.0862 6.6652 87.7438 5.99085 88.5884 5.52292C89.4468 5.04124 90.4298 4.8004 91.5374 4.8004C92.6174 4.8004 93.5727 5.03436 94.4034 5.50228C95.2341 5.9702 95.871 6.61703 96.314 7.44278C96.7709 8.25476 96.9994 9.17684 96.9994 10.209ZM95.0472 9.81679C95.0472 9.10114 94.888 8.48872 94.5695 7.97951C94.2511 7.45654 93.815 7.06431 93.2612 6.80283C92.7212 6.52758 92.1189 6.38995 91.4544 6.38995C90.499 6.38995 89.6822 6.69273 89.0038 7.29827C88.3392 7.90382 87.9584 8.74332 87.8615 9.81679H95.0472Z" fill="#5C5C5C"/>
<path d="M0.566391 9.09426C0.566391 7.6905 0.884832 6.43124 1.52171 5.31649C2.15859 4.18797 3.02392 3.30718 4.1177 2.67411C5.22532 2.04104 6.45062 1.72451 7.79361 1.72451C9.37197 1.72451 10.7496 2.10297 11.9264 2.8599C13.1033 3.61684 13.9617 4.6903 14.5016 6.0803H12.2379C11.8364 5.21327 11.2549 4.5458 10.4934 4.07787C9.74579 3.60995 8.84585 3.37599 7.79361 3.37599C6.78291 3.37599 5.87604 3.60995 5.07302 4.07787C4.26999 4.5458 3.64004 5.21327 3.18314 6.0803C2.72625 6.93357 2.4978 7.93822 2.4978 9.09426C2.4978 10.2365 2.72625 11.2412 3.18314 12.1082C3.64004 12.9615 4.26999 13.6221 5.07302 14.09C5.87604 14.5579 6.78291 14.7919 7.79361 14.7919C8.84585 14.7919 9.74579 14.5648 10.4934 14.1107C11.2549 13.6427 11.8364 12.9753 12.2379 12.1082H14.5016C13.9617 13.4845 13.1033 14.551 11.9264 15.308C10.7496 16.0511 9.37197 16.4227 7.79361 16.4227C6.45062 16.4227 5.22532 16.1131 4.1177 15.4938C3.02392 14.8607 2.15859 13.9868 1.52171 12.872C0.884832 11.7573 0.566391 10.498 0.566391 9.09426Z" stroke="#5C5C5C" mask="url(#path-1-outside-1)"/>
<path d="M22.2784 16.4847C21.2123 16.4847 20.2431 16.2438 19.3709 15.7621C18.5125 15.2805 17.8341 14.5992 17.3356 13.7184C16.851 12.8239 16.6088 11.7917 16.6088 10.6219C16.6088 9.46585 16.858 8.44743 17.3564 7.56664C17.8687 6.67208 18.5609 5.99085 19.4332 5.52292C20.3054 5.04124 21.2815 4.8004 22.3615 4.8004C23.4414 4.8004 24.4175 5.04124 25.2897 5.52292C26.162 5.99085 26.8473 6.6652 27.3457 7.54599C27.858 8.42679 28.1142 9.45208 28.1142 10.6219C28.1142 11.7917 27.8511 12.8239 27.325 13.7184C26.8127 14.5992 26.1135 15.2805 25.2274 15.7621C24.3413 16.2438 23.3583 16.4847 22.2784 16.4847ZM22.2784 14.8332C22.9568 14.8332 23.5937 14.6749 24.189 14.3584C24.7844 14.0418 25.262 13.567 25.622 12.934C25.9958 12.3009 26.1827 11.5302 26.1827 10.6219C26.1827 9.71357 26.0028 8.94288 25.6428 8.30981C25.2828 7.67674 24.8121 7.20882 24.2306 6.90604C23.6491 6.58951 23.0191 6.43124 22.3407 6.43124C21.6484 6.43124 21.0115 6.58951 20.43 6.90604C19.8624 7.20882 19.4055 7.67674 19.0594 8.30981C18.7132 8.94288 18.5402 9.71357 18.5402 10.6219C18.5402 11.544 18.7063 12.3215 19.0386 12.9546C19.3847 13.5877 19.8416 14.0625 20.4093 14.379C20.9769 14.6818 21.6 14.8332 22.2784 14.8332Z" stroke="#5C5C5C" mask="url(#path-1-outside-1)"/>
<path d="M31.5751 3.14891C31.2151 3.14891 30.9105 3.02505 30.6613 2.77733C30.4121 2.52961 30.2875 2.22683 30.2875 1.86901C30.2875 1.51119 30.4121 1.20842 30.6613 0.960696C30.9105 0.712973 31.2151 0.589111 31.5751 0.589111C31.9212 0.589111 32.212 0.712973 32.4473 0.960696C32.6966 1.20842 32.8212 1.51119 32.8212 1.86901C32.8212 2.22683 32.6966 2.52961 32.4473 2.77733C32.212 3.02505 31.9212 3.14891 31.5751 3.14891ZM32.4889 4.98619V16.2989H30.599V4.98619H32.4889Z" stroke="#5C5C5C" mask="url(#path-1-outside-1)"/>
<path d="M41.2549 4.77976C42.6394 4.77976 43.7608 5.19951 44.6193 6.03901C45.4777 6.86476 45.9069 8.06208 45.9069 9.63099V16.2989H44.0378V9.89936C44.0378 8.77085 43.7539 7.9107 43.1863 7.31891C42.6186 6.71337 41.8433 6.4106 40.8603 6.4106C39.8634 6.4106 39.0673 6.72025 38.472 7.33956C37.8905 7.95887 37.5997 8.8603 37.5997 10.0439V16.2989H35.7098V4.98619H37.5997V6.59639C37.9735 6.01837 38.4789 5.57109 39.1158 5.25456C39.7665 4.93802 40.4795 4.77976 41.2549 4.77976Z" stroke="#5C5C5C" mask="url(#path-1-outside-1)"/>
<path d="M56.242 8.88783C56.7681 8.9704 57.2457 9.18372 57.6749 9.52778C58.118 9.87184 58.4641 10.2985 58.7133 10.8077C58.9764 11.3169 59.1079 11.8605 59.1079 12.4385C59.1079 13.1679 58.921 13.8285 58.5472 14.4203C58.1734 14.9983 57.6265 15.4594 56.9065 15.8034C56.2004 16.1337 55.3628 16.2989 54.3936 16.2989H48.994V1.9103H54.1859C55.169 1.9103 56.0066 2.07545 56.6988 2.40575C57.3911 2.72228 57.9103 3.1558 58.2564 3.70629C58.6026 4.25679 58.7756 4.87609 58.7756 5.56421C58.7756 6.41748 58.5403 7.12624 58.0695 7.6905C57.6126 8.24099 57.0034 8.6401 56.242 8.88783ZM50.8838 8.12401H54.0613C54.9474 8.12401 55.6328 7.91758 56.1174 7.50471C56.6019 7.09184 56.8442 6.5207 56.8442 5.79129C56.8442 5.06188 56.6019 4.49075 56.1174 4.07787C55.6328 3.665 54.9336 3.45857 54.0198 3.45857H50.8838V8.12401ZM54.2275 14.7506C55.1689 14.7506 55.9027 14.5304 56.4289 14.09C56.955 13.6496 57.218 13.0372 57.218 12.2527C57.218 11.4545 56.9411 10.8283 56.3873 10.3742C55.8335 9.90624 55.0928 9.67228 54.1652 9.67228H50.8838V14.7506H54.2275Z" stroke="#5C5C5C" mask="url(#path-1-outside-1)"/>
<path d="M61.0244 10.6012C61.0244 9.4452 61.2598 8.43367 61.7305 7.56664C62.2013 6.68585 62.8451 6.00461 63.6619 5.52292C64.4926 5.04124 65.4134 4.8004 66.424 4.8004C67.4209 4.8004 68.2862 5.01372 69.02 5.44035C69.7538 5.86698 70.3007 6.40372 70.6607 7.05055V4.98619H72.5713V16.2989H70.6607V14.1932C70.2869 14.8538 69.7261 15.4043 68.9785 15.8447C68.2447 16.2713 67.3863 16.4847 66.4033 16.4847C65.3926 16.4847 64.4788 16.2369 63.6619 15.7415C62.8451 15.246 62.2013 14.551 61.7305 13.6565C61.2598 12.7619 61.0244 11.7435 61.0244 10.6012ZM70.6607 10.6219C70.6607 9.76862 70.4876 9.02545 70.1415 8.39238C69.7954 7.75931 69.3246 7.27763 68.7293 6.94733C68.1478 6.60327 67.504 6.43124 66.7979 6.43124C66.0918 6.43124 65.448 6.59639 64.8665 6.92669C64.285 7.25698 63.8211 7.73867 63.475 8.37174C63.1289 9.00481 62.9558 9.74798 62.9558 10.6012C62.9558 11.4683 63.1289 12.2252 63.475 12.872C63.8211 13.5051 64.285 13.9937 64.8665 14.3377C65.448 14.668 66.0918 14.8332 66.7979 14.8332C67.504 14.8332 68.1478 14.668 68.7293 14.3377C69.3246 13.9937 69.7954 13.5051 70.1415 12.872C70.4876 12.2252 70.6607 11.4752 70.6607 10.6219Z" stroke="#5C5C5C" mask="url(#path-1-outside-1)"/>
<path d="M79.794 16.4847C78.9218 16.4847 78.1395 16.3402 77.4473 16.0511C76.755 15.7484 76.2081 15.3355 75.8066 14.8125C75.4051 14.2758 75.1836 13.6634 75.142 12.9753H77.0942C77.1496 13.5395 77.4126 14.0006 77.8834 14.3584C78.368 14.7162 78.9979 14.8951 79.7732 14.8951C80.4932 14.8951 81.0609 14.7368 81.4762 14.4203C81.8916 14.1038 82.0993 13.7047 82.0993 13.223C82.0993 12.7275 81.8777 12.3628 81.4347 12.1289C80.9916 11.8811 80.3063 11.6403 79.3787 11.4063C78.5341 11.1861 77.8418 10.9659 77.3019 10.7457C76.7758 10.5118 76.3189 10.1746 75.9312 9.73421C75.5574 9.28005 75.3705 8.68827 75.3705 7.95887C75.3705 7.38085 75.5435 6.85099 75.8897 6.36931C76.2358 5.88763 76.7273 5.50916 77.3642 5.23391C78.0011 4.9449 78.7279 4.8004 79.5448 4.8004C80.8047 4.8004 81.8223 5.11693 82.5977 5.75C83.373 6.38307 83.7884 7.2501 83.8437 8.35109H81.9539C81.9123 7.75931 81.67 7.28451 81.227 6.92669C80.7978 6.56887 80.2163 6.38995 79.4825 6.38995C78.8041 6.38995 78.2641 6.53446 77.8626 6.82347C77.4611 7.11248 77.2603 7.49094 77.2603 7.95887C77.2603 8.33045 77.378 8.6401 77.6134 8.88783C77.8626 9.12179 78.1672 9.31446 78.5272 9.46585C78.901 9.60347 79.4133 9.76174 80.064 9.94065C80.8809 10.1608 81.5454 10.381 82.0577 10.6012C82.57 10.8077 83.0061 11.1242 83.3661 11.5508C83.7399 11.9775 83.9337 12.5349 83.9476 13.223C83.9476 13.8423 83.7745 14.3997 83.4284 14.8951C83.0823 15.3905 82.5908 15.7828 81.9539 16.0718C81.3308 16.347 80.6109 16.4847 79.794 16.4847Z" stroke="#5C5C5C" mask="url(#path-1-outside-1)"/>
<path d="M96.9994 10.209C96.9994 10.5668 96.9786 10.9453 96.9371 11.3444H87.8408C87.91 12.4592 88.2907 13.3331 88.983 13.9661C89.6891 14.5855 90.5406 14.8951 91.5374 14.8951C92.3543 14.8951 93.0327 14.7093 93.5727 14.3377C94.1265 13.9524 94.5142 13.4432 94.7357 12.8101H96.7709C96.4663 13.8973 95.8571 14.785 94.9434 15.4731C94.0296 16.1475 92.8943 16.4847 91.5374 16.4847C90.4575 16.4847 89.4883 16.2438 88.6299 15.7621C87.7854 15.2805 87.1208 14.5992 86.6362 13.7184C86.1516 12.8239 85.9093 11.7917 85.9093 10.6219C85.9093 9.45208 86.1447 8.42679 86.6154 7.54599C87.0862 6.6652 87.7438 5.99085 88.5884 5.52292C89.4468 5.04124 90.4298 4.8004 91.5374 4.8004C92.6174 4.8004 93.5727 5.03436 94.4034 5.50228C95.2341 5.9702 95.871 6.61703 96.314 7.44278C96.7709 8.25476 96.9994 9.17684 96.9994 10.209ZM95.0472 9.81679C95.0472 9.10114 94.888 8.48872 94.5695 7.97951C94.2511 7.45654 93.815 7.06431 93.2612 6.80283C92.7212 6.52758 92.1189 6.38995 91.4544 6.38995C90.499 6.38995 89.6822 6.69273 89.0038 7.29827C88.3392 7.90382 87.9584 8.74332 87.8615 9.81679H95.0472Z" stroke="#5C5C5C" mask="url(#path-1-outside-1)"/>
</svg>
